# xmcd
#
# Track frame offsets:
#	150
#	12191
#	35349
#	55727
#	75125
#	91476
#	109888
#	130818
#	154587
#	171940
#	190878
#	207613
#	224799
#	243697
#	262023
#	283333
#	300637
#	322537
#
# Disc length: 4533 seconds
#
# Revision: 1
# Processed by: cddbd v1.4PL0 Copyright (c) Steve Scherf et al.
# Submitted via: audiograbber 1.82.02
#
DISCID=fe11b312
DTITLE=Русский стандарт - Шансон.RU
DYEAR=2003
DGENRE=Шансон
TTITLE0=Трофим - Алефтина
TTITLE1=Круг - Кресты
TTITLE2=Маршал - Не Отправленное Письмо
TTITLE3=Жека - Черный ворон
TTITLE4=Волк - Фомочка-отмычка
TTITLE5=Слуцкий - Сыну Егору
TTITLE6=Бока - Седина
TTITLE7=Миша Ша! - Третий глаз
TTITLE8=Бутырка - Кольщик
TTITLE9=Воровайки - Отец
TTITLE10=Тишинская - Вокзал для двоих
TTITLE11=Медяник - Встреча у кафе "Метелица"
TTITLE12=Беломорканал - Скрипач
TTITLE13=Аня Воробей and Рок острова - Звонарь
TTITLE14=Виктор Петлюра - Окольцованная птица
TTITLE15=Казанцев - Аккорд ключей проволки
TTITLE16=Гулько - Таганочка
TTITLE17=Рыбаков - Гуси-Лебеди
EXTD=
EXTT0=
EXTT1=
EXTT2=
EXTT3=
EXTT4=
EXTT5=
EXTT6=
EXTT7=
EXTT8=
EXTT9=
EXTT10=
EXTT11=
EXTT12=
EXTT13=
EXTT14=
EXTT15=
EXTT16=
EXTT17=
PLAYORDER=
